<svg width="33" height="33" viewBox="0 0 33 33" fill="none" xmlns="http://www.w3.org/2000/svg">
<g filter="url(#filter0_d_315_818)">
<circle cx="16.5" cy="12.5" r="12.5" transform="rotate(-180 16.5 12.5)" fill="#95D88A"/>
</g>
<rect width="15" height="16.25" transform="translate(9 3.75)" fill="#95D88A"/>
<path d="M21.05 7.3H19.75V6.65C19.75 6.47761 19.6815 6.31228 19.5596 6.19038C19.4377 6.06848 19.2724 6 19.1 6C18.9276 6 18.7623 6.06848 18.6404 6.19038C18.5185 6.31228 18.45 6.47761 18.45 6.65V7.3H14.55V6.65C14.55 6.47761 14.4815 6.31228 14.3596 6.19038C14.2377 6.06848 14.0724 6 13.9 6C13.7276 6 13.5623 6.06848 13.4404 6.19038C13.3185 6.31228 13.25 6.47761 13.25 6.65V7.3H11.95C11.4328 7.3 10.9368 7.50545 10.5711 7.87114C10.2054 8.23684 10 8.73283 10 9.25V17.05C10 17.5672 10.2054 18.0632 10.5711 18.4289C10.9368 18.7946 11.4328 19 11.95 19H21.05C21.5672 19 22.0632 18.7946 22.4289 18.4289C22.7946 18.0632 23 17.5672 23 17.05V9.25C23 8.73283 22.7946 8.23684 22.4289 7.87114C22.0632 7.50545 21.5672 7.3 21.05 7.3ZM21.7 17.05C21.7 17.2224 21.6315 17.3877 21.5096 17.5096C21.3877 17.6315 21.2224 17.7 21.05 17.7H11.95C11.7776 17.7 11.6123 17.6315 11.4904 17.5096C11.3685 17.3877 11.3 17.2224 11.3 17.05V12.5H21.7V17.05ZM21.7 11.2H11.3V9.25C11.3 9.07761 11.3685 8.91228 11.4904 8.79038C11.6123 8.66848 11.7776 8.6 11.95 8.6H13.25V9.25C13.25 9.42239 13.3185 9.58772 13.4404 9.70962C13.5623 9.83152 13.7276 9.9 13.9 9.9C14.0724 9.9 14.2377 9.83152 14.3596 9.70962C14.4815 9.58772 14.55 9.42239 14.55 9.25V8.6H18.45V9.25C18.45 9.42239 18.5185 9.58772 18.6404 9.70962C18.7623 9.83152 18.9276 9.9 19.1 9.9C19.2724 9.9 19.4377 9.83152 19.5596 9.70962C19.6815 9.58772 19.75 9.42239 19.75 9.25V8.6H21.05C21.2224 8.6 21.3877 8.66848 21.5096 8.79038C21.6315 8.91228 21.7 9.07761 21.7 9.25V11.2Z" fill="white"/>
<defs>
<filter id="filter0_d_315_818" x="0" y="0" width="33" height="33" filterUnits="userSpaceOnUse" color-interpolation-filters="sRGB">
<feFlood flood-opacity="0" result="BackgroundImageFix"/>
<feColorMatrix in="SourceAlpha" type="matrix" values="0 0 0 0 0 0 0 0 0 0 0 0 0 0 0 0 0 0 127 0" result="hardAlpha"/>
<feOffset dy="4"/>
<feGaussianBlur stdDeviation="2"/>
<feComposite in2="hardAlpha" operator="out"/>
<feColorMatrix type="matrix" values="0 0 0 0 0 0 0 0 0 0 0 0 0 0 0 0 0 0 0.25 0"/>
<feBlend mode="normal" in2="BackgroundImageFix" result="effect1_dropShadow_315_818"/>
<feBlend mode="normal" in="SourceGraphic" in2="effect1_dropShadow_315_818" result="shape"/>
</filter>
</defs>
</svg>
