<svg width="22" height="68" viewBox="0 0 22 68" fill="none" xmlns="http://www.w3.org/2000/svg">
<path d="M0.0556641 0H21.5807V16.9521L16.1994 46.6183H5.43692L0.0556641 16.9521V0ZM21.5807 59.3323C21.6131 60.4611 21.3588 61.5836 20.8329 62.6339C20.3069 63.6842 19.5197 64.6411 18.5177 65.4485C17.5156 66.256 16.3188 66.8976 14.9976 67.3357C13.6763 67.7739 12.2572 67.9997 10.8236 68C9.39001 68.0003 7.97079 67.775 6.64926 67.3374C5.32773 66.8997 4.13053 66.2586 3.12796 65.4516C2.12539 64.6445 1.33765 63.6879 0.810984 62.6378C0.284321 61.5877 0.029351 60.4653 0.0610449 59.3366C0.123228 57.1219 1.2838 55.0145 3.29431 53.4653C5.30483 51.9162 8.00552 51.0485 10.8182 51.0479C13.631 51.0474 16.3322 51.914 18.3437 53.4624C20.3552 55.0107 21.5171 57.1177 21.5807 59.3323Z" fill="#FF0000" fill-opacity="0.63"/>
</svg>
