<svg width="20" height="19" viewBox="0 0 20 19" fill="none" xmlns="http://www.w3.org/2000/svg">
<g clip-path="url(#clip0_246_298)">
<path d="M9.67399 11.4315C10.9744 11.4315 12.0286 10.4466 12.0286 9.23163C12.0286 8.01667 10.9744 7.03174 9.67399 7.03174C8.37355 7.03174 7.31934 8.01667 7.31934 9.23163C7.31934 10.4466 8.37355 11.4315 9.67399 11.4315Z" fill="white"/>
<path d="M15.9531 3.36552H13.465L12.4918 2.37557C12.2014 2.07492 11.7775 1.89893 11.338 1.89893H8.01008C7.57054 1.89893 7.14671 2.07492 6.84845 2.37557L5.88304 3.36552H3.39496C2.53159 3.36552 1.8252 4.02549 1.8252 4.83212V13.6317C1.8252 14.4383 2.53159 15.0983 3.39496 15.0983H15.9531C16.8165 15.0983 17.5229 14.4383 17.5229 13.6317V4.83212C17.5229 4.02549 16.8165 3.36552 15.9531 3.36552ZM9.67403 12.8984C7.50775 12.8984 5.74961 11.2558 5.74961 9.23191C5.74961 7.20801 7.50775 5.56542 9.67403 5.56542C11.8403 5.56542 13.5985 7.20801 13.5985 9.23191C13.5985 11.2558 11.8403 12.8984 9.67403 12.8984Z" fill="white"/>
</g>
<defs>
<clipPath id="clip0_246_298">
<rect width="18.8372" height="17.5992" fill="white" transform="translate(0.255371 0.432129)"/>
</clipPath>
</defs>
</svg>
