<svg width="34" height="34" viewBox="0 0 34 34" fill="none" xmlns="http://www.w3.org/2000/svg">
<g filter="url(#filter0_d_139_684)">
<circle cx="17" cy="13" r="13" transform="rotate(-180 17 13)" fill="#95D88A"/>
</g>
<path d="M17 12.6C16.4317 12.6 15.8866 12.3893 15.4848 12.0142C15.0829 11.6391 14.8571 11.1304 14.8571 10.6C14.8571 10.0696 15.0829 9.56086 15.4848 9.18579C15.8866 8.81071 16.4317 8.6 17 8.6C17.5683 8.6 18.1134 8.81071 18.5152 9.18579C18.9171 9.56086 19.1429 10.0696 19.1429 10.6C19.1429 10.8626 19.0874 11.1227 18.9797 11.3654C18.8721 11.608 18.7142 11.8285 18.5152 12.0142C18.3162 12.1999 18.08 12.3472 17.82 12.4478C17.5601 12.5483 17.2814 12.6 17 12.6ZM17 5C15.4087 5 13.8826 5.59 12.7574 6.6402C11.6321 7.69041 11 9.11479 11 10.6C11 14.8 17 21 17 21C17 21 23 14.8 23 10.6C23 9.11479 22.3679 7.69041 21.2426 6.6402C20.1174 5.59 18.5913 5 17 5Z" fill="white"/>
<defs>
<filter id="filter0_d_139_684" x="0" y="0" width="34" height="34" filterUnits="userSpaceOnUse" color-interpolation-filters="sRGB">
<feFlood flood-opacity="0" result="BackgroundImageFix"/>
<feColorMatrix in="SourceAlpha" type="matrix" values="0 0 0 0 0 0 0 0 0 0 0 0 0 0 0 0 0 0 127 0" result="hardAlpha"/>
<feOffset dy="4"/>
<feGaussianBlur stdDeviation="2"/>
<feComposite in2="hardAlpha" operator="out"/>
<feColorMatrix type="matrix" values="0 0 0 0 0 0 0 0 0 0 0 0 0 0 0 0 0 0 0.25 0"/>
<feBlend mode="normal" in2="BackgroundImageFix" result="effect1_dropShadow_139_684"/>
<feBlend mode="normal" in="SourceGraphic" in2="effect1_dropShadow_139_684" result="shape"/>
</filter>
</defs>
</svg>
